/* XPM */
static char *arara[] = {
/* columns rows colors chars-per-pixel */
"24 24 161 2 ",
"   c #010101",
".  c #0C0C0C",
"X  c #131313",
"o  c #191919",
"O  c #242424",
"+  c #393939",
"@  c #414141",
"#  c #5A5A5A",
"$  c #646464",
"%  c #747474",
"&  c #787878",
"*  c #00B745",
"=  c #00B847",
"-  c #05B94C",
";  c #01B651",
":  c #01B25C",
">  c #13BD54",
",  c #03B067",
"<  c #05AD77",
"1  c #17B67C",
"2  c #1EC05C",
"3  c #20C15E",
"4  c #2EC568",
"5  c #36C76E",
"6  c #3CC779",
"7  c #41CA76",
"8  c #49CB7F",
"9  c #FFB70F",
"0  c #FFB912",
"q  c #FFBB1B",
"w  c #FFBD24",
"e  c #FFBF28",
"r  c #FEC316",
"t  c #FDCB16",
"y  c #FFCD1E",
"u  c #FCD31A",
"i  c #FCDD1C",
"p  c #FAE31F",
"a  c #FAEC1E",
"s  c #FFC02A",
"d  c #FFC53F",
"f  c #FAEC22",
"g  c #FDED2C",
"h  c #FDEF30",
"j  c #FDEA39",
"k  c #FEF03D",
"l  c #FDC947",
"z  c #FFCC56",
"x  c #FAF04D",
"c  c #F7F05C",
"v  c #FBD56A",
"b  c #EDDD78",
"n  c #FFD778",
"m  c #F3EF6B",
"M  c #EFE773",
"N  c #06A989",
"B  c #09A696",
"V  c #24B590",
"C  c #0B9EB7",
"Z  c #0AA3A2",
"A  c #0CA1AC",
"S  c #13AAA1",
"D  c #5ED28B",
"F  c #62D38E",
"G  c #0E9BC6",
"H  c #0E97D5",
"J  c #1095DE",
"K  c #28A8CD",
"L  c #3AACD6",
"P  c #0E94E2",
"I  c #0F91EC",
"U  c #0F9FED",
"Y  c #1093E5",
"T  c #1393ED",
"R  c #129AED",
"E  c #1795F0",
"W  c #2299F1",
"Q  c #12A4ED",
"!  c #11ACED",
"~  c #0EB8ED",
"^  c #10B2ED",
"/  c #11BCED",
"(  c #26AFF1",
")  c #3BA5F0",
"_  c #79BEDD",
"`  c #4CADEF",
"'  c #5AB3EC",
"]  c #45A9F1",
"[  c #4BB3F1",
"{  c #64B8EA",
"}  c #70BDF4",
"|  c #0EC7ED",
" . c #0FC8ED",
".. c #11C8ED",
"X. c #15C0F0",
"o. c #23CCEE",
"O. c #28CDEF",
"+. c #32D0EF",
"@. c #2ACBF2",
"#. c #3CD2F1",
"$. c #55D8F2",
"%. c #66CBE9",
"&. c #65D6F3",
"*. c #72DEF4",
"=. c #888888",
"-. c #9D9D9D",
";. c #AAAAAA",
":. c #B2B2B2",
">. c #8ADFAB",
",. c #B2D7BC",
"<. c #DCD38C",
"1. c #C3D39B",
"2. c #D0DA95",
"3. c #E8D880",
"4. c #FFD980",
"5. c #DBE69A",
"6. c #FFE298",
"7. c #CBE4AB",
"8. c #D0E3A1",
"9. c #C5E0BF",
"0. c #FFE6AB",
"q. c #FFEBBC",
"w. c #9ACDD2",
"e. c #99D8DA",
"r. c #A1D1CC",
"t. c #ABE4C4",
"y. c #B3EAC8",
"u. c #82C6F6",
"i. c #95D3F7",
"p. c #B0DBF9",
"a. c #87E3F6",
"s. c #A8EBF8",
"d. c #CACACA",
"f. c #D1D1D1",
"g. c #DBDBDB",
"h. c #C4EFD5",
"j. c #C7E3D8",
"k. c #CCF1DA",
"l. c #D2F3DF",
"z. c #FFEDC2",
"x. c #FFF0CB",
"c. c #F3F3D6",
"v. c #FFF2D5",
"b. c #DAF4E7",
"n. c #CAF3FB",
"m. c #D6F5FC",
"M. c #DFF8FD",
"N. c #E9E9E9",
"B. c #E1F7EA",
"V. c #E4F8EC",
"C. c #FFF7E3",
"Z. c #FEFAED",
"A. c #ECFAF2",
"S. c #E5F6FB",
"D. c #EBF6FE",
"F. c #EDFAFE",
"G. c #F5F5F5",
"H. c #F6F9F7",
"J. c #FFFCF5",
"K. c #F5FBFE",
"L. c #FFFFFF",
/* pixels */
"L.L.L.L.L.L.L.A.b.k.h.k.b.A.L.L.L.L.L.L.L.L.L.L.",
"L.L.L.L.K.k.>.D 7 2 > > 3 5 F t.A.L.L.L.L.L.L.L.",
"L.L.L.L.V.h.l.V.B.y.7 * = * * - 7 h.L.L.L.L.L.L.",
"L.L.L.L.L.L.H.f.L.L.B.6 * = = = * 3 h.L.L.L.L.L.",
"L.L.L.L.L.L.g.# :.G.L.y.- = = = = * 8 c.J.L.L.L.",
"L.N.G.L.L.L.G.-.;.L.L.A.4 * = ; : , 1 2.6.L.L.L.",
"H.% d.L.L.L.L.L.L.L.L.H.6 : , < N N S 1.s z.L.L.",
"g.O $ G.L.L.L.L.L.L.L.b.V N B Z A C K <.9 z J.L.",
"d.X   # f.L.L.L.L.L.L.e.A C G G H P _ l 9 q q.L.",
"f.o     o & G.L.L.L.S.L H J Y I T { 3.r 0 9 n L.",
"G.@       $ L.L.L.L.u.T T E W ` w.M y 0 0 0 l Z.",
"L.;.    . :.L.L.L.Z.9.r.r.,.8.M j i t 0 0 0 s v.",
"L.G.%   . d.L.L.D.j.k h h g f a p u r 0 0 0 w x.",
"L.L.G.-.+ =.L.L.i.' m a f f f f p u r 0 0 0 e v.",
"L.L.L.L.N.g.H.D.] T w.x a f f f p u r 0 0 9 d Z.",
"L.L.L.L.L.L.L.p.T T W w.m f a f i u r 0 0 9 4.L.",
"L.L.L.L.L.L.L.} I T T E { 7.c g i t 0 9 0 z C.L.",
"L.L.L.L.L.L.K.] I T T R U ( %.t.5.b v n 0.Z.L.L.",
"L.L.L.L.L.L.D.) T R Q Q ! ^ ~ X.@.#.*.F.L.L.L.L.",
"L.L.L.L.L.L.K.[ U Q ! ^ / / .... . . .a.L.L.L.L.",
"L.L.L.L.L.L.L.i.! ^ / / ............| *.L.L.L.L.",
"L.L.L.L.L.L.L.F.&./ |  ....... . ...$.m.L.L.L.L.",
"L.L.L.L.L.L.L.L.K.s.$.+.o.o.O.#.&.s.F.L.L.L.L.L.",
"L.L.L.L.L.L.L.L.L.L.K.M.n.n.m.S.L.L.L.L.L.L.L.L."
};
